<svg xmlns="http://www.w3.org/2000/svg" width="21.797" height="21.797" viewBox="0 0 21.797 21.797">
  <path fill="#fff" fill-rule="evenodd" d="M10.9,1.938a33.417,33.417,0,0,1,4.359.121,5.617,5.617,0,0,1,2.059.363,4.253,4.253,0,0,1,2.059,2.059,5.617,5.617,0,0,1,.363,2.059c0,1.09.121,1.453.121,4.359a33.417,33.417,0,0,1-.121,4.359,5.617,5.617,0,0,1-.363,2.059,4.253,4.253,0,0,1-2.059,2.059,5.617,5.617,0,0,1-2.059.363c-1.09,0-1.453.121-4.359.121a33.417,33.417,0,0,1-4.359-.121,5.617,5.617,0,0,1-2.059-.363,4.253,4.253,0,0,1-2.059-2.059,5.617,5.617,0,0,1-.363-2.059c0-1.09-.121-1.453-.121-4.359a33.417,33.417,0,0,1,.121-4.359,5.617,5.617,0,0,1,.363-2.059A4.349,4.349,0,0,1,3.27,3.27a2.047,2.047,0,0,1,1.211-.848,5.617,5.617,0,0,1,2.059-.363A33.417,33.417,0,0,1,10.9,1.938M10.9,0A35.78,35.78,0,0,0,6.418.121,7.476,7.476,0,0,0,3.754.605,4.741,4.741,0,0,0,1.816,1.816,4.741,4.741,0,0,0,.605,3.754,5.517,5.517,0,0,0,.121,6.418,35.78,35.78,0,0,0,0,10.9a35.78,35.78,0,0,0,.121,4.481,7.476,7.476,0,0,0,.484,2.664,4.741,4.741,0,0,0,1.211,1.938,4.741,4.741,0,0,0,1.938,1.211,7.476,7.476,0,0,0,2.664.484A35.78,35.78,0,0,0,10.9,21.8a35.78,35.78,0,0,0,4.481-.121,7.476,7.476,0,0,0,2.664-.484,5.081,5.081,0,0,0,3.148-3.148,7.476,7.476,0,0,0,.484-2.664c0-1.211.121-1.574.121-4.481a35.78,35.78,0,0,0-.121-4.481,7.476,7.476,0,0,0-.484-2.664,4.741,4.741,0,0,0-1.211-1.938A4.741,4.741,0,0,0,18.043.605,7.476,7.476,0,0,0,15.379.121,35.78,35.78,0,0,0,10.9,0m0,5.328a5.481,5.481,0,0,0-5.57,5.57,5.57,5.57,0,1,0,5.57-5.57m0,9.2A3.568,3.568,0,0,1,7.266,10.9,3.568,3.568,0,0,1,10.9,7.266,3.568,3.568,0,0,1,14.531,10.9,3.568,3.568,0,0,1,10.9,14.531M16.711,3.754a1.332,1.332,0,1,0,1.332,1.332,1.344,1.344,0,0,0-1.332-1.332"/>
</svg>
