<svg xmlns="http://www.w3.org/2000/svg" fill="currentColor" viewBox="0 0 29.734 29.734">
    <defs></defs>
    <g transform="translate(-1778.9 -88.088)">
        <g transform="translate(1779 88.188)">
            <path d="M19.767,5A14.767,14.767,0,1,0,34.534,19.767,14.778,14.778,0,0,0,19.767,5Zm0,1.342A13.425,13.425,0,1,1,6.342,19.767,13.414,13.414,0,0,1,19.767,6.342Zm0,3.356a4.686,4.686,0,0,0-2.735,8.5,8.735,8.735,0,0,0-5.991,8.28.671.671,0,1,0,1.342,0,7.384,7.384,0,1,1,14.767,0,.671.671,0,1,0,1.342,0A8.735,8.735,0,0,0,22.5,18.2a4.686,4.686,0,0,0-2.735-8.5Zm0,1.342A3.356,3.356,0,1,1,16.411,14.4,3.345,3.345,0,0,1,19.767,11.041Z" transform="translate(-5 -5)" />
        </g>
    </g>
</svg>