<svg xmlns="http://www.w3.org/2000/svg" fill="currentColor" stroke="currentColor" width="30.465" height="30.399" viewBox="0 0 30.465 30.399"><defs><style>.a{stroke-width:0.5px;}</style></defs><g transform="translate(-3.771 -3.842)"><path class="a" d="M33.773,14.513l-1.146-2.772a1.859,1.859,0,0,0-1.011-1.011,1.825,1.825,0,0,0-1.431,0l-1.483.614a12.3,12.3,0,0,0-2.023-2.023l.614-1.483a1.879,1.879,0,0,0-1.011-2.45L23.5,4.242a1.879,1.879,0,0,0-2.45,1.011l-.614,1.483a12.188,12.188,0,0,0-2.862,0l-.614-1.483a1.859,1.859,0,0,0-1.011-1.011,1.892,1.892,0,0,0-1.431,0L11.748,5.388a1.877,1.877,0,0,0-1.011,2.45l.614,1.483a12.3,12.3,0,0,0-2.023,2.023l-1.483-.614a1.825,1.825,0,0,0-1.431,0A1.859,1.859,0,0,0,5.4,11.741L4.242,14.513a1.879,1.879,0,0,0,1.011,2.45l1.483.614a12.188,12.188,0,0,0,0,2.862l-1.483.614A1.889,1.889,0,0,0,4.242,23.5l1.146,2.772A1.859,1.859,0,0,0,6.4,27.285a1.825,1.825,0,0,0,1.431,0l1.483-.614a12.3,12.3,0,0,0,2.023,2.023l-.614,1.483a1.879,1.879,0,0,0,1.011,2.45l2.772,1.146a1.838,1.838,0,0,0,.719.142,1.869,1.869,0,0,0,1.73-1.154l.614-1.483a12.189,12.189,0,0,0,2.862,0l.614,1.483a1.877,1.877,0,0,0,2.45,1.011l2.772-1.146a1.877,1.877,0,0,0,1.011-2.45l-.614-1.483a12.3,12.3,0,0,0,2.023-2.023l1.483.614a1.825,1.825,0,0,0,1.431,0,1.859,1.859,0,0,0,1.011-1.011L33.758,23.5a1.879,1.879,0,0,0-1.011-2.45l-1.483-.614a12.189,12.189,0,0,0,0-2.862l1.483-.614A1.877,1.877,0,0,0,33.773,14.513Zm-3.049,2.48a.368.368,0,0,0-.225.4,11.653,11.653,0,0,1,0,3.229.367.367,0,0,0,.225.4l1.745.727a1.127,1.127,0,0,1,.607,1.468L31.93,25.982a1.127,1.127,0,0,1-1.468.607l-1.745-.727a.384.384,0,0,0-.442.12,11.583,11.583,0,0,1-2.285,2.285.374.374,0,0,0-.12.442l.727,1.745a1.127,1.127,0,0,1-.607,1.468l-2.772,1.146a1.127,1.127,0,0,1-1.468-.607l-.727-1.745a.363.363,0,0,0-.4-.225,11.653,11.653,0,0,1-3.229,0,.367.367,0,0,0-.4.225l-.727,1.745a1.1,1.1,0,0,1-.607.607,1.143,1.143,0,0,1-.861,0l-2.772-1.146a1.127,1.127,0,0,1-.607-1.468l.727-1.745a.374.374,0,0,0-.12-.442,11.385,11.385,0,0,1-2.285-2.285.38.38,0,0,0-.3-.15.325.325,0,0,0-.142.03l-1.745.727a1.127,1.127,0,0,1-1.468-.607L4.946,23.21a1.127,1.127,0,0,1,.607-1.468L7.3,21.022a.368.368,0,0,0,.225-.4,11.653,11.653,0,0,1,0-3.229A.367.367,0,0,0,7.3,17l-1.745-.727A1.127,1.127,0,0,1,4.946,14.8l1.146-2.772a1.127,1.127,0,0,1,1.468-.607l1.745.727a.374.374,0,0,0,.442-.12,11.583,11.583,0,0,1,2.285-2.285.374.374,0,0,0,.12-.442l-.727-1.745a1.127,1.127,0,0,1,.607-1.468L14.8,4.946a1.143,1.143,0,0,1,.861,0,1.1,1.1,0,0,1,.607.607L17,7.3a.372.372,0,0,0,.4.225,11.653,11.653,0,0,1,3.229,0,.372.372,0,0,0,.4-.225l.727-1.745a1.127,1.127,0,0,1,1.468-.607l2.772,1.146A1.127,1.127,0,0,1,26.6,7.561l-.727,1.745a.374.374,0,0,0,.12.442,11.385,11.385,0,0,1,2.285,2.285.374.374,0,0,0,.442.12l1.745-.727a1.133,1.133,0,0,1,1.468.607L33.076,14.8a1.127,1.127,0,0,1-.607,1.468Z" transform="translate(0 0)"/><path class="a" d="M24.267,16.925a5.619,5.619,0,1,0-4.3,10.383,5.681,5.681,0,0,0,2.15.434,5.541,5.541,0,0,0,2.15-.434,5.619,5.619,0,0,0,0-10.383Zm2.352,7.057a4.868,4.868,0,1,1,0-3.723A4.842,4.842,0,0,1,26.619,23.982Z" transform="translate(-3.109 -3.109)"/></g></svg>